<svg width="150" height="150" viewBox="0 0 150 150" fill="none" xmlns="http://www.w3.org/2000/svg">
<g opacity="0.5">
<mask id="mask0_368_4619" style="mask-type:alpha" maskUnits="userSpaceOnUse" x="-1" y="0" width="151" height="150">
<rect x="-0.00146484" width="150" height="150" fill="#4F5A68"/>
</mask>
<g mask="url(#mask0_368_4619)">
<path d="M65.7798 103.437L109.999 59.2188L102.811 52.1875L65.7798 89.2188L47.0298 70.4687L39.9985 77.5L65.7798 103.437ZM74.9985 137.5C66.4569 137.5 58.384 135.859 50.7798 132.578C43.1756 129.297 36.535 124.818 30.8579 119.141C25.1808 113.464 20.7017 106.823 17.4204 99.2188C14.1392 91.6146 12.4985 83.5417 12.4985 75C12.4985 66.3542 14.1392 58.2292 17.4204 50.625C20.7017 43.0208 25.1808 36.4063 30.8579 30.7813C36.535 25.1563 43.1756 20.7031 50.7798 17.4219C58.384 14.1406 66.4569 12.5 74.9985 12.5C83.6444 12.5 91.7694 14.1406 99.3735 17.4219C106.978 20.7031 113.592 25.1563 119.217 30.7813C124.842 36.4063 129.295 43.0208 132.577 50.625C135.858 58.2292 137.499 66.3542 137.499 75C137.499 83.5417 135.858 91.6146 132.577 99.2188C129.295 106.823 124.842 113.464 119.217 119.141C113.592 124.818 106.978 129.297 99.3735 132.578C91.7694 135.859 83.6444 137.5 74.9985 137.5ZM74.9985 128.125C89.7902 128.125 102.342 122.943 112.655 112.578C122.967 102.214 128.124 89.6875 128.124 75C128.124 60.2083 122.967 47.6562 112.655 37.3438C102.342 27.0312 89.7902 21.875 74.9985 21.875C60.311 21.875 47.785 27.0312 37.4204 37.3438C27.0558 47.6562 21.8735 60.2083 21.8735 75C21.8735 89.6875 27.0558 102.214 37.4204 112.578C47.785 122.943 60.311 128.125 74.9985 128.125Z" fill="#98A4D7"/>
</g>
</g>
</svg>
