<svg width="158" height="52" viewBox="0 0 158 52" fill="none" xmlns="http://www.w3.org/2000/svg">
<rect x="0.5" y="0.5" width="156.66" height="51" rx="8.5" stroke="#98A4D7"/>
<path d="M26.6974 16.9439L26.6783 34.0063L22.5768 34.0017L22.5959 16.9393L26.6974 16.9439ZM33.2754 24.0411L33.2643 34.0137L29.315 34.0093L29.3292 21.3296L33.0324 21.3338L33.2754 24.0411ZM32.8031 27.2398L31.8773 27.2622C31.8784 26.2934 31.9965 25.4303 32.2318 24.6727C32.467 23.9074 32.7997 23.2593 33.23 22.7285C33.6603 22.1978 34.1725 21.796 34.7665 21.5232C35.3684 21.2426 36.0365 21.1028 36.7709 21.1036C37.3568 21.1042 37.8919 21.1908 38.3761 21.3632C38.8681 21.5356 39.2896 21.8134 39.6408 22.1966C39.9997 22.5799 40.2726 23.088 40.4594 23.721C40.654 24.3462 40.7508 25.1198 40.7498 26.0416L40.7408 34.0221L36.7682 34.0177L36.7771 26.0255C36.7777 25.5177 36.7078 25.1309 36.5675 24.8651C36.4272 24.5915 36.2242 24.4038 35.9587 24.3019C35.6932 24.2 35.3691 24.1489 34.9862 24.1485C34.58 24.148 34.2362 24.2257 33.9547 24.3817C33.6733 24.5376 33.4465 24.7561 33.2743 25.0372C33.1099 25.3104 32.9885 25.6345 32.9099 26.0094C32.8392 26.3843 32.8036 26.7945 32.8031 27.2398ZM46.8223 24.0563L46.8111 34.0289L42.8619 34.0245L42.8761 21.3448L46.5792 21.349L46.8223 24.0563ZM46.35 27.255L45.4242 27.2773C45.4252 26.3086 45.5434 25.4455 45.7786 24.6879C46.0139 23.9225 46.3466 23.2745 46.7769 22.7437C47.2072 22.2129 47.7193 21.8112 48.3134 21.5384C48.9153 21.2578 49.5834 21.1179 50.3178 21.1188C50.9037 21.1194 51.4388 21.206 51.923 21.3784C52.415 21.5508 52.8365 21.8286 53.1876 22.2118C53.5466 22.595 53.8195 23.1032 54.0063 23.7362C54.2009 24.3614 54.2977 25.135 54.2966 26.0568L54.2877 34.0373L50.315 34.0328L50.324 26.0407C50.3245 25.5328 50.2547 25.146 50.1143 24.8803C49.974 24.6067 49.7711 24.4189 49.5056 24.3171C49.2401 24.2152 48.9159 24.1641 48.5331 24.1636C48.1269 24.1632 47.783 24.2409 47.5016 24.3969C47.2202 24.5528 46.9934 24.7713 46.8212 25.0524C46.6568 25.3256 46.5354 25.6497 46.4568 26.0246C46.3861 26.3995 46.3505 26.8096 46.35 27.255ZM55.9939 27.8283L55.9941 27.5822C55.9952 26.6525 56.1289 25.7972 56.3954 25.0162C56.662 24.2274 57.0533 23.5443 57.5696 22.9667C58.0859 22.3892 58.7231 21.9407 59.4813 21.6212C60.2395 21.294 61.1146 21.1309 62.1068 21.132C63.1068 21.1331 63.9856 21.2982 64.743 21.6271C65.5083 21.9483 66.1484 22.3982 66.6634 22.9769C67.1783 23.5556 67.5682 24.2397 67.8329 25.029C68.0977 25.8106 68.2295 26.6662 68.2285 27.5959L68.2282 27.842C68.2272 28.7638 68.0934 29.6192 67.8269 30.4079C67.5604 31.1889 67.169 31.872 66.6527 32.4574C66.1365 33.0349 65.4992 33.4834 64.7411 33.8029C63.9829 34.1224 63.1077 34.2816 62.1155 34.2804C61.1233 34.2793 60.2446 34.1182 59.4794 33.797C58.7141 33.4758 58.074 33.0259 57.559 32.4472C57.044 31.8607 56.6542 31.1767 56.3894 30.3951C56.1247 29.6058 55.9928 28.7501 55.9939 27.8283ZM59.9433 27.5866L59.9431 27.8327C59.9425 28.3092 59.9772 28.7546 60.047 29.1687C60.1169 29.5829 60.2337 29.9463 60.3974 30.259C60.5611 30.5638 60.7835 30.8024 61.0645 30.9746C61.3456 31.1468 61.6971 31.2331 62.1189 31.2336C62.533 31.234 62.8769 31.1485 63.1505 30.9769C63.4319 30.8053 63.6549 30.5673 63.8193 30.2628C63.9837 29.9505 64.1013 29.5873 64.172 29.1734C64.2428 28.7594 64.2785 28.3141 64.279 27.8375L64.2793 27.5915C64.2798 27.1305 64.2451 26.6969 64.1753 26.2906C64.1054 25.8764 63.9886 25.513 63.8249 25.2003C63.6612 24.8798 63.4389 24.6296 63.1578 24.4496C62.8768 24.2696 62.5253 24.1793 62.1034 24.1789C61.6894 24.1784 61.3416 24.2678 61.0601 24.4472C60.7865 24.6266 60.5675 24.8764 60.4031 25.1965C60.2386 25.5088 60.121 25.8719 60.0503 26.2859C59.9795 26.6921 59.9439 27.1257 59.9433 27.5866ZM74.3649 31.3528L76.8722 21.3829L81.0323 21.3876L76.8697 34.0626L74.4088 34.0598L74.3649 31.3528ZM72.8995 21.3785L75.3493 31.3539L75.3228 34.0609L72.8502 34.0581L68.7277 21.3738L72.8995 21.3785ZM88.592 30.8882L88.5979 25.6617C88.5983 25.3023 88.5478 24.9937 88.4466 24.7357C88.3453 24.4778 88.1854 24.2784 87.9668 24.1375C87.7482 23.9889 87.4553 23.9143 87.0881 23.9139C86.7912 23.9136 86.5373 23.9641 86.3262 24.0654C86.1152 24.1667 85.9548 24.3189 85.8452 24.5219C85.7356 24.7249 85.6807 24.9826 85.6803 25.2951L81.7311 25.2907C81.7317 24.7048 81.8613 24.1619 82.1196 23.6622C82.3858 23.1547 82.7613 22.7137 83.2461 22.3393C83.7387 21.9648 84.325 21.6764 85.0049 21.4741C85.6926 21.2639 86.4584 21.1593 87.3021 21.1602C88.3099 21.1614 89.2082 21.3303 89.9969 21.6672C90.7934 22.004 91.4217 22.5086 91.8819 23.181C92.3421 23.8456 92.5716 24.6818 92.5705 25.6896L92.5647 30.881C92.5637 31.7091 92.6099 32.3381 92.7032 32.7678C92.7965 33.1898 92.9289 33.5611 93.1004 33.8816L93.1001 34.0808L89.1392 34.0764C88.9522 33.6855 88.8121 33.2088 88.7189 32.6462C88.6336 32.0758 88.5913 31.4898 88.592 30.8882ZM89.0776 26.3302L89.0987 28.4396L87.3526 28.4376C86.9854 28.4372 86.6728 28.4876 86.4149 28.5889C86.1648 28.6902 85.9615 28.8306 85.805 29.0101C85.6564 29.1818 85.5468 29.377 85.4763 29.5957C85.4135 29.8144 85.382 30.0448 85.3817 30.287C85.3815 30.5214 85.4359 30.7324 85.5451 30.92C85.6621 31.0998 85.8182 31.2406 86.0134 31.3424C86.2086 31.4442 86.4273 31.4952 86.6694 31.4955C87.1069 31.4959 87.4781 31.4143 87.783 31.2506C88.0957 31.0791 88.3342 30.8723 88.4985 30.6303C88.6629 30.3883 88.7452 30.1618 88.7454 29.9509L89.6108 31.5691C89.4542 31.8814 89.2741 32.1976 89.0706 32.5177C88.875 32.8378 88.6286 33.1344 88.3314 33.4075C88.042 33.6728 87.6863 33.8911 87.2642 34.0625C86.8422 34.2261 86.3304 34.3076 85.7288 34.3069C84.9475 34.306 84.229 34.1451 83.5731 33.824C82.925 33.503 82.406 33.0571 82.016 32.4863C81.626 31.9078 81.4314 31.2435 81.4323 30.4935C81.433 29.8372 81.5509 29.2514 81.7858 28.7361C82.0286 28.2207 82.3924 27.7836 82.8771 27.4248C83.3619 27.066 83.9794 26.7932 84.7296 26.6066C85.4798 26.4199 86.3627 26.3271 87.3784 26.3283L89.0776 26.3302ZM101.446 21.4105L101.443 24.1526L93.8027 24.1441L93.8058 21.4019L101.446 21.4105ZM95.4148 18.2513L99.364 18.2558L99.3509 29.9511C99.3505 30.287 99.3893 30.5488 99.4672 30.7364C99.5451 30.9161 99.6778 31.0452 99.8652 31.1235C100.06 31.1941 100.318 31.2295 100.639 31.2299C100.865 31.2301 101.053 31.2264 101.201 31.2188C101.349 31.2033 101.49 31.1839 101.623 31.1607L101.62 33.9849C101.284 34.0939 100.932 34.1755 100.565 34.2298C100.198 34.2919 99.8069 34.3227 99.3929 34.3222C98.5491 34.3213 97.8266 34.1877 97.2253 33.9214C96.6319 33.6551 96.1792 33.2366 95.8674 32.6659C95.5555 32.0953 95.4001 31.3529 95.4011 30.4388L95.4148 18.2513ZM107.189 21.4169L107.174 34.0966L103.213 34.0921L103.228 21.4124L107.189 21.4169ZM102.997 18.1427C102.998 17.5802 103.201 17.1194 103.608 16.7605C104.015 16.4016 104.542 16.2225 105.19 16.2232C105.839 16.224 106.366 16.4042 106.772 16.7641C107.178 17.1239 107.38 17.5851 107.38 18.1476C107.379 18.7101 107.175 19.1708 106.769 19.5297C106.362 19.8886 105.835 20.0677 105.186 20.067C104.538 20.0663 104.011 19.886 103.605 19.5262C103.199 19.1663 102.996 18.7052 102.997 18.1427ZM109.127 27.8878L109.127 27.6417C109.128 26.712 109.262 25.8567 109.528 25.0758C109.795 24.287 110.186 23.6038 110.702 23.0263C111.219 22.4488 111.856 22.0002 112.614 21.6808C113.372 21.3535 114.247 21.1904 115.24 21.1915C116.24 21.1927 117.118 21.3577 117.876 21.6867C118.641 22.0079 119.281 22.4578 119.796 23.0365C120.311 23.6152 120.701 24.2992 120.966 25.0886C121.23 25.8701 121.362 26.7257 121.361 27.6554L121.361 27.9015C121.36 28.8234 121.226 29.6787 120.96 30.4675C120.693 31.2484 120.302 31.9316 119.786 32.517C119.269 33.0945 118.632 33.543 117.874 33.8625C117.116 34.1819 116.24 34.3411 115.248 34.34C114.256 34.3389 113.377 34.1777 112.612 33.8566C111.847 33.5354 111.207 33.0855 110.692 32.5068C110.177 31.9202 109.787 31.2362 109.522 30.4547C109.257 29.6653 109.126 28.8097 109.127 27.8878ZM113.076 27.6461L113.076 27.8922C113.075 28.3688 113.11 28.8142 113.18 29.2283C113.25 29.6424 113.366 30.0058 113.53 30.3185C113.694 30.6234 113.916 30.8619 114.197 31.0341C114.478 31.2063 114.83 31.2926 115.252 31.2931C115.666 31.2936 116.01 31.208 116.283 31.0365C116.565 30.8649 116.788 30.6269 116.952 30.3224C117.116 30.0101 117.234 29.6469 117.305 29.2329C117.376 28.8189 117.411 28.3737 117.412 27.8971L117.412 27.651C117.413 27.1901 117.378 26.7564 117.308 26.3501C117.238 25.936 117.121 25.5726 116.958 25.2599C116.794 24.9394 116.572 24.6891 116.291 24.5091C116.01 24.3291 115.658 24.2389 115.236 24.2384C114.822 24.2379 114.474 24.3274 114.193 24.5068C113.919 24.6862 113.7 24.9359 113.536 25.256C113.371 25.5684 113.254 25.9315 113.183 26.3455C113.112 26.7517 113.077 27.1852 113.076 27.6461ZM127.002 24.1461L126.991 34.1188L123.042 34.1144L123.056 21.4347L126.759 21.4388L127.002 24.1461ZM126.53 27.3448L125.604 27.3672C125.605 26.3985 125.723 25.5353 125.958 24.7778C126.193 24.0124 126.526 23.3643 126.957 22.8336C127.387 22.3028 127.899 21.901 128.493 21.6283C129.095 21.3477 129.763 21.2078 130.497 21.2086C131.083 21.2093 131.618 21.2958 132.103 21.4683C132.595 21.6407 133.016 21.9185 133.367 22.3017C133.726 22.6849 133.999 23.193 134.186 23.8261C134.38 24.4513 134.477 25.2248 134.476 26.1467L134.467 34.1272L130.495 34.1227L130.504 26.1305C130.504 25.6227 130.434 25.2359 130.294 24.9701C130.154 24.6965 129.951 24.5088 129.685 24.407C129.42 24.3051 129.096 24.2539 128.713 24.2535C128.306 24.2531 127.963 24.3308 127.681 24.4867C127.4 24.6427 127.173 24.8612 127.001 25.1422C126.836 25.4155 126.715 25.7396 126.636 26.1145C126.566 26.4894 126.53 26.8995 126.53 27.3448Z" fill="#98A4D7"/>
</svg>
