<svg width="40" height="34" viewBox="0 0 40 34" fill="none" xmlns="http://www.w3.org/2000/svg">
<path fill-rule="evenodd" clip-rule="evenodd" d="M14.9231 0.300519C14.9231 0.459904 14.4051 0.52975 12.6649 0.604981C11.3568 0.661443 10.3648 0.770673 10.3068 0.864519C10.2517 0.953596 9.50246 1.06944 8.64185 1.12175C7.47831 1.19267 7.07692 1.27037 7.07692 1.42467C7.07692 1.5816 6.77631 1.63221 5.84615 1.63221C4.85477 1.63221 4.61538 1.67713 4.61538 1.86298C4.61538 2.0116 4.46492 2.09452 4.19231 2.0959C3.53354 2.09913 3.07692 2.26313 3.07692 2.49637C3.07692 2.61329 2.93846 2.70913 2.76923 2.70913C2.59831 2.70913 2.46154 2.81175 2.46154 2.9399C2.46154 3.06683 2.35769 3.17067 2.23077 3.17067C2.10385 3.17067 2 3.27452 2 3.40144C2 3.52837 1.89615 3.63221 1.76923 3.63221C1.64231 3.63221 1.53846 3.73606 1.53846 3.86298C1.53846 3.9899 1.43462 4.09375 1.30769 4.09375C1.17954 4.09375 1.07692 4.23052 1.07692 4.40144C1.07692 4.57067 0.981077 4.70913 0.864154 4.70913C0.630923 4.70913 0.466923 5.16575 0.463692 5.82452C0.462308 6.09713 0.379385 6.2476 0.230769 6.2476C0.0278462 6.2476 0 7.54667 0 17.0168C0 26.487 0.0278462 27.7861 0.230769 27.7861C0.379385 27.7861 0.462308 27.9365 0.463692 28.2091C0.466923 28.8679 0.630923 29.3245 0.864154 29.3245C0.981077 29.3245 1.07692 29.463 1.07692 29.6322C1.07692 29.8031 1.17954 29.9399 1.30769 29.9399C1.43462 29.9399 1.53846 30.0437 1.53846 30.1707C1.53846 30.2976 1.64231 30.4014 1.76923 30.4014C1.89615 30.4014 2 30.5053 2 30.6322C2 30.7591 2.10385 30.863 2.23077 30.863C2.35769 30.863 2.46154 30.9668 2.46154 31.0937C2.46154 31.2219 2.59831 31.3245 2.76923 31.3245C2.93846 31.3245 3.07692 31.4204 3.07692 31.5373C3.07692 31.7705 3.53354 31.9345 4.19231 31.9377C4.46492 31.9391 4.61538 32.0221 4.61538 32.1707C4.61538 32.3577 4.86323 32.4014 5.92308 32.4014C6.918 32.4014 7.23077 32.4511 7.23077 32.609C7.23077 32.7622 7.62123 32.8422 8.72031 32.9144C9.53954 32.9682 10.2542 33.0841 10.3083 33.1717C10.3643 33.2624 11.3812 33.3733 12.6649 33.4287C14.4051 33.5039 14.9231 33.5737 14.9231 33.7331C14.9231 33.9021 15.8511 33.9399 20 33.9399C24.1712 33.9399 25.0769 33.9027 25.0769 33.7313C25.0769 33.5704 25.5391 33.5039 27.0957 33.4407C28.24 33.3944 29.1574 33.2893 29.2137 33.1984C29.2682 33.1101 30.0905 32.9887 31.0411 32.9285C32.3405 32.8464 32.7692 32.7673 32.7692 32.6104C32.7692 32.4508 33.078 32.4014 34.0769 32.4014C35.1368 32.4014 35.3846 32.3577 35.3846 32.1707C35.3846 32.0221 35.5351 31.9391 35.8077 31.9377C36.4665 31.9345 36.9231 31.7705 36.9231 31.5373C36.9231 31.4204 37.0615 31.3245 37.2308 31.3245C37.4017 31.3245 37.5385 31.2219 37.5385 31.0937C37.5385 30.9668 37.6423 30.863 37.7692 30.863C37.8962 30.863 38 30.7591 38 30.6322C38 30.5053 38.1038 30.4014 38.2308 30.4014C38.3577 30.4014 38.4615 30.2976 38.4615 30.1707C38.4615 30.0437 38.5654 29.9399 38.6923 29.9399C38.8205 29.9399 38.9231 29.8031 38.9231 29.6322C38.9231 29.463 39.0189 29.3245 39.1358 29.3245C39.3691 29.3245 39.5331 28.8679 39.5363 28.2091C39.5377 27.9365 39.6206 27.7861 39.7692 27.7861C39.9722 27.7861 40 26.487 40 17.0168C40 7.54667 39.9722 6.2476 39.7692 6.2476C39.6206 6.2476 39.5377 6.09713 39.5363 5.82452C39.5331 5.16575 39.3691 4.70913 39.1358 4.70913C39.0189 4.70913 38.9231 4.57067 38.9231 4.40144C38.9231 4.23052 38.8205 4.09375 38.6923 4.09375C38.5654 4.09375 38.4615 3.9899 38.4615 3.86298C38.4615 3.73606 38.3577 3.63221 38.2308 3.63221C38.1038 3.63221 38 3.52837 38 3.40144C38 3.27452 37.8962 3.17067 37.7692 3.17067C37.6423 3.17067 37.5385 3.06683 37.5385 2.9399C37.5385 2.81175 37.4017 2.70913 37.2308 2.70913C37.0615 2.70913 36.9231 2.61329 36.9231 2.49637C36.9231 2.26313 36.4665 2.09913 35.8077 2.0959C35.5351 2.09452 35.3846 2.0116 35.3846 1.86298C35.3846 1.67713 35.1452 1.63221 34.1538 1.63221C33.2237 1.63221 32.9231 1.5816 32.9231 1.42467C32.9231 1.27037 32.5217 1.19267 31.3582 1.12175C30.4975 1.06944 29.7483 0.953596 29.6932 0.864519C29.6352 0.770673 28.6432 0.661443 27.3351 0.604981C25.5949 0.52975 25.0769 0.459904 25.0769 0.300519C25.0769 0.131596 24.1489 0.09375 20 0.09375C15.8511 0.09375 14.9231 0.131596 14.9231 0.300519ZM15.8462 10.1707C15.8462 10.2988 15.9829 10.4014 16.1538 10.4014C16.3248 10.4014 16.4615 10.5041 16.4615 10.6322C16.4615 10.7861 16.6154 10.863 16.9231 10.863C17.2143 10.863 17.3846 10.9417 17.3846 11.0767C17.3846 11.199 17.6146 11.3334 17.9231 11.3913C18.2454 11.4517 18.4615 11.5822 18.4615 11.7161C18.4615 11.8622 18.6218 11.9399 18.9231 11.9399C19.2308 11.9399 19.3846 12.0168 19.3846 12.1707C19.3846 12.2988 19.5214 12.4014 19.6923 12.4014C19.8615 12.4014 20 12.4976 20 12.6151C20 12.7374 20.23 12.8719 20.5385 12.9297C20.8346 12.9853 21.0769 13.0913 21.0769 13.1654C21.0769 13.2394 21.2846 13.3457 21.5385 13.4014C21.7923 13.4571 22 13.6011 22 13.7213C22 13.8416 22.1385 13.9399 22.3077 13.9399C22.4786 13.9399 22.6154 14.0425 22.6154 14.1707C22.6154 14.3204 22.7654 14.4014 23.0428 14.4014C23.2797 14.4014 23.5874 14.5385 23.7335 14.7091C23.8785 14.8784 24.1362 15.0168 24.3062 15.0168C24.4785 15.0168 24.6154 15.119 24.6154 15.2476C24.6154 15.4014 24.7692 15.4784 25.0769 15.4784C25.3846 15.4784 25.5385 15.5553 25.5385 15.7091C25.5385 15.8373 25.6752 15.9399 25.8462 15.9399C26.0154 15.9399 26.1538 16.0407 26.1538 16.1637C26.1538 16.2976 26.37 16.4281 26.6923 16.4885C27.1542 16.5751 27.2308 16.6504 27.2308 17.0168C27.2308 17.3833 27.1542 17.4585 26.6923 17.5451C26.37 17.6056 26.1538 17.7361 26.1538 17.8699C26.1538 17.993 26.0154 18.0937 25.8462 18.0937C25.6752 18.0937 25.5385 18.1964 25.5385 18.3245C25.5385 18.4784 25.3846 18.5553 25.0769 18.5553C24.7692 18.5553 24.6154 18.6322 24.6154 18.7861C24.6154 18.9147 24.4785 19.0168 24.3062 19.0168C24.1362 19.0168 23.8785 19.1553 23.7335 19.3245C23.5874 19.4951 23.2797 19.6322 23.0428 19.6322C22.7654 19.6322 22.6154 19.7133 22.6154 19.863C22.6154 19.9911 22.4786 20.0937 22.3077 20.0937C22.1385 20.0937 22 20.1921 22 20.3124C22 20.4325 21.7923 20.5765 21.5385 20.6322C21.2846 20.6879 21.0769 20.7942 21.0769 20.8682C21.0769 20.9424 20.8346 21.0484 20.5385 21.1039C20.23 21.1617 20 21.2962 20 21.4185C20 21.5361 19.8615 21.6322 19.6923 21.6322C19.5214 21.6322 19.3846 21.7348 19.3846 21.863C19.3846 22.0168 19.2308 22.0937 18.9231 22.0937C18.6218 22.0937 18.4615 22.1714 18.4615 22.3176C18.4615 22.4514 18.2454 22.5819 17.9231 22.6424C17.6146 22.7002 17.3846 22.8347 17.3846 22.957C17.3846 23.0919 17.2143 23.1707 16.9231 23.1707C16.6154 23.1707 16.4615 23.2476 16.4615 23.4014C16.4615 23.5296 16.3248 23.6322 16.1538 23.6322C15.9829 23.6322 15.8462 23.7348 15.8462 23.863C15.8462 23.9899 15.7423 24.0937 15.6154 24.0937C15.4135 24.0937 15.3846 23.2048 15.3846 17.0168C15.3846 10.8288 15.4135 9.9399 15.6154 9.9399C15.7423 9.9399 15.8462 10.0437 15.8462 10.1707Z" fill="#98A4D7"/>
</svg>
